<svg xmlns="http://www.w3.org/2000/svg" xmlns:xlink="http://www.w3.org/1999/xlink" width="500" zoomAndPan="magnify" viewBox="0 0 375.12 383.03998" height="500" preserveAspectRatio="xMidYMid meet" version="1.2"><defs><clipPath id="dd4a5bfac8"><path d="M 25.355469 169 L 229 169 L 229 373 L 25.355469 373 Z M 25.355469 169 "/></clipPath></defs><g id="7141496e56"><g clip-rule="nonzero" clip-path="url(#dd4a5bfac8)"><path style=" stroke:none;fill-rule:evenodd;fill:#000000;fill-opacity:1;" d="M 86.632812 332.949219 C 87.226562 332.949219 87.820312 333.109375 88.34375 333.433594 C 95.097656 337.625 102.414062 340.671875 110.105469 342.476562 C 111.582031 342.824219 112.613281 344.132812 112.613281 345.652344 L 112.613281 361.566406 C 112.613281 364.144531 114.707031 366.242188 117.28125 366.242188 L 136.539062 366.242188 C 139.113281 366.242188 141.207031 364.144531 141.207031 361.566406 L 141.207031 345.652344 C 141.207031 344.140625 142.238281 342.824219 143.714844 342.476562 C 151.414062 340.671875 158.734375 337.625 165.476562 333.441406 C 166.765625 332.644531 168.425781 332.839844 169.492188 333.910156 L 180.742188 345.167969 C 182.558594 346.992188 185.511719 346.992188 187.332031 345.167969 L 200.957031 331.535156 C 202.769531 329.710938 202.769531 326.75 200.953125 324.925781 L 189.707031 313.65625 C 188.640625 312.589844 188.441406 310.925781 189.238281 309.636719 C 193.425781 302.882812 196.457031 295.542969 198.261719 287.847656 C 198.609375 286.375 199.921875 285.328125 201.429688 285.328125 L 217.332031 285.328125 C 219.898438 285.328125 221.988281 283.234375 221.988281 280.664062 L 221.992188 261.371094 C 221.992188 258.800781 219.898438 256.707031 217.332031 256.707031 L 201.429688 256.703125 C 199.921875 256.703125 198.609375 255.660156 198.261719 254.195312 C 196.457031 246.480469 193.425781 239.144531 189.238281 232.390625 C 188.445312 231.109375 188.636719 229.445312 189.703125 228.378906 L 200.957031 217.109375 C 202.769531 215.285156 202.769531 212.324219 200.953125 210.511719 L 187.332031 196.867188 C 185.511719 195.042969 182.554688 195.042969 180.742188 196.867188 L 169.492188 208.132812 C 168.417969 209.203125 166.757812 209.398438 165.476562 208.601562 C 158.726562 204.410156 151.40625 201.363281 143.714844 199.558594 C 142.242188 199.21875 141.207031 197.902344 141.207031 196.394531 L 141.207031 180.46875 C 141.207031 177.890625 139.113281 175.792969 136.539062 175.792969 L 117.285156 175.792969 C 114.707031 175.792969 112.613281 177.890625 112.613281 180.46875 L 112.613281 196.394531 C 112.613281 197.902344 111.582031 199.21875 110.105469 199.558594 C 102.414062 201.363281 95.097656 204.410156 88.34375 208.601562 C 87.066406 209.398438 85.394531 209.203125 84.328125 208.132812 L 73.078125 196.867188 C 71.265625 195.042969 68.308594 195.042969 66.488281 196.867188 L 52.867188 210.511719 C 51.996094 211.382812 51.511719 212.554688 51.511719 213.8125 C 51.511719 215.058594 51.992188 216.238281 52.867188 217.109375 L 64.117188 228.378906 C 65.183594 229.445312 65.378906 231.109375 64.582031 232.398438 C 60.40625 239.152344 57.363281 246.480469 55.558594 254.195312 C 55.214844 255.660156 53.898438 256.707031 52.390625 256.707031 L 36.492188 256.703125 C 33.925781 256.703125 31.832031 258.800781 31.832031 261.371094 L 31.832031 280.664062 C 31.832031 283.234375 33.925781 285.328125 36.492188 285.328125 L 52.394531 285.328125 C 53.902344 285.328125 55.210938 286.375 55.558594 287.847656 C 57.367188 295.5625 60.398438 302.890625 64.582031 309.644531 C 65.378906 310.925781 65.183594 312.589844 64.117188 313.667969 L 52.867188 324.925781 C 51.996094 325.796875 51.511719 326.976562 51.511719 328.222656 C 51.511719 329.480469 51.992188 330.652344 52.867188 331.523438 L 66.488281 345.167969 C 67.359375 346.050781 68.53125 346.523438 69.785156 346.523438 C 71.039062 346.523438 72.207031 346.050781 73.078125 345.167969 L 84.328125 333.898438 C 84.957031 333.273438 85.792969 332.949219 86.632812 332.949219 Z M 136.539062 372.757812 L 117.28125 372.757812 C 111.125 372.757812 106.109375 367.734375 106.109375 361.566406 L 106.109375 348.1875 C 99.476562 346.398438 93.113281 343.75 87.140625 340.304688 L 77.679688 349.773438 C 75.578125 351.886719 72.773438 353.039062 69.785156 353.039062 C 66.792969 353.039062 63.988281 351.886719 61.886719 349.773438 L 48.265625 336.140625 C 46.164062 334.027344 45.003906 331.21875 45.003906 328.222656 C 45.003906 325.238281 46.164062 322.429688 48.265625 320.316406 L 57.71875 310.851562 C 54.28125 304.867188 51.644531 298.496094 49.859375 291.847656 L 36.492188 291.847656 C 30.332031 291.847656 25.324219 286.832031 25.324219 280.664062 L 25.328125 261.371094 C 25.328125 255.203125 30.332031 250.191406 36.492188 250.191406 L 49.859375 250.1875 C 51.648438 243.539062 54.28125 237.167969 57.730469 231.1875 L 48.265625 221.71875 C 46.164062 219.613281 45.003906 216.804688 45.003906 213.8125 C 45.003906 210.816406 46.164062 208.007812 48.265625 205.902344 L 61.890625 192.261719 C 66.242188 187.902344 73.324219 187.902344 77.679688 192.261719 L 87.140625 201.730469 C 93.113281 198.285156 99.476562 195.636719 106.109375 193.847656 L 106.109375 180.46875 C 106.109375 174.300781 111.125 169.277344 117.28125 169.277344 L 136.539062 169.277344 C 142.699219 169.277344 147.710938 174.300781 147.710938 180.46875 L 147.714844 193.847656 C 154.347656 195.636719 160.707031 198.285156 166.679688 201.730469 L 176.140625 192.261719 C 180.496094 187.902344 187.578125 187.902344 191.933594 192.261719 L 205.554688 205.902344 C 209.910156 210.265625 209.910156 217.355469 205.554688 221.71875 L 196.101562 231.1875 C 199.542969 237.167969 202.175781 243.539062 203.960938 250.191406 L 217.332031 250.1875 C 223.488281 250.1875 228.496094 255.203125 228.496094 261.371094 L 228.496094 280.664062 C 228.496094 286.832031 223.488281 291.847656 217.332031 291.847656 L 203.964844 291.847656 C 202.175781 298.488281 199.539062 304.859375 196.09375 310.851562 L 205.554688 320.316406 C 209.910156 324.679688 209.910156 331.777344 205.554688 336.140625 L 191.933594 349.773438 C 187.578125 354.132812 180.496094 354.132812 176.140625 349.773438 L 166.6875 340.304688 C 160.71875 343.757812 154.355469 346.398438 147.710938 348.1875 L 147.714844 361.566406 C 147.714844 367.734375 142.695312 372.757812 136.539062 372.757812 Z M 136.539062 372.757812 "/></g><path style=" stroke:none;fill-rule:evenodd;fill:#000000;fill-opacity:1;" d="M 126.90625 232.933594 C 105.941406 232.933594 88.878906 250.019531 88.878906 271.019531 C 88.878906 292.023438 105.941406 309.109375 126.90625 309.109375 C 147.882812 309.109375 164.941406 292.023438 164.941406 271.019531 C 164.945312 250.019531 147.882812 232.933594 126.90625 232.933594 Z M 126.90625 315.625 C 102.355469 315.625 82.371094 295.613281 82.371094 271.019531 C 82.375 246.421875 102.355469 226.417969 126.90625 226.417969 C 151.472656 226.417969 171.449219 246.421875 171.449219 271.019531 C 171.449219 295.613281 151.472656 315.625 126.90625 315.625 Z M 126.90625 315.625 "/><path style=" stroke:none;fill-rule:evenodd;fill:#000000;fill-opacity:1;" d="M 199.304688 139.832031 C 199.894531 139.832031 200.488281 139.992188 201.023438 140.324219 C 206.65625 143.828125 212.808594 146.371094 219.289062 147.898438 C 220.761719 148.238281 221.804688 149.554688 221.804688 151.0625 L 221.804688 164.542969 C 221.804688 166.445312 223.34375 167.996094 225.242188 167.996094 L 241.542969 167.996094 C 243.441406 167.996094 244.988281 166.445312 244.988281 164.542969 L 244.988281 151.0625 C 244.988281 149.554688 246.023438 148.238281 247.496094 147.890625 C 253.988281 146.371094 260.128906 143.816406 265.769531 140.324219 C 267.050781 139.523438 268.710938 139.71875 269.777344 140.789062 L 279.292969 150.316406 C 280.640625 151.65625 282.824219 151.65625 284.160156 150.316406 L 295.691406 138.769531 C 297.03125 137.429688 297.03125 135.242188 295.691406 133.890625 L 286.179688 124.371094 C 285.109375 123.304688 284.914062 121.632812 285.710938 120.351562 C 289.210938 114.699219 291.75 108.542969 293.277344 102.050781 C 293.617188 100.574219 294.929688 99.539062 296.445312 99.539062 L 309.898438 99.539062 C 311.796875 99.539062 313.34375 97.988281 313.34375 96.085938 L 313.34375 79.765625 C 313.34375 77.863281 311.796875 76.320312 309.898438 76.320312 L 296.4375 76.320312 C 294.929688 76.320312 293.617188 75.277344 293.269531 73.800781 C 291.753906 67.300781 289.203125 61.152344 285.710938 55.507812 C 284.917969 54.21875 285.109375 52.554688 286.175781 51.488281 L 295.691406 41.960938 C 297.03125 40.609375 297.03125 38.429688 295.691406 37.082031 L 284.160156 25.542969 C 282.824219 24.195312 280.636719 24.195312 279.289062 25.542969 L 269.777344 35.070312 C 268.710938 36.140625 267.050781 36.328125 265.769531 35.53125 C 260.128906 32.035156 253.984375 29.488281 247.496094 27.960938 C 246.023438 27.613281 244.988281 26.308594 244.988281 24.789062 L 244.988281 11.308594 C 244.988281 9.40625 243.4375 7.863281 241.542969 7.863281 L 225.242188 7.863281 C 223.347656 7.863281 221.804688 9.40625 221.804688 11.308594 L 221.804688 24.789062 C 221.804688 26.308594 220.761719 27.621094 219.285156 27.960938 C 212.808594 29.488281 206.664062 32.035156 201.023438 35.539062 C 199.734375 36.335938 198.074219 36.140625 197.007812 35.070312 L 187.496094 25.542969 C 186.148438 24.195312 183.96875 24.195312 182.621094 25.542969 L 171.101562 37.082031 C 169.753906 38.429688 169.753906 40.609375 171.101562 41.960938 L 180.605469 51.488281 C 181.675781 52.554688 181.867188 54.21875 181.074219 55.507812 C 177.574219 61.160156 175.03125 67.308594 173.515625 73.800781 C 173.167969 75.277344 171.855469 76.320312 170.347656 76.320312 L 156.886719 76.320312 C 154.988281 76.320312 153.445312 77.863281 153.445312 79.765625 L 153.449219 96.085938 C 153.449219 97.988281 154.988281 99.539062 156.886719 99.539062 L 170.347656 99.539062 C 171.863281 99.539062 173.167969 100.582031 173.515625 102.050781 C 175.039062 108.550781 177.582031 114.703125 181.074219 120.351562 C 181.871094 121.632812 181.683594 123.296875 180.613281 124.371094 L 171.101562 133.890625 C 169.753906 135.242188 169.753906 137.429688 171.101562 138.769531 L 182.621094 150.316406 C 183.960938 151.65625 186.148438 151.65625 187.492188 150.316406 L 197.007812 140.789062 C 197.636719 140.160156 198.464844 139.832031 199.304688 139.832031 Z M 241.542969 174.511719 L 225.242188 174.511719 C 219.761719 174.511719 215.296875 170.042969 215.296875 164.542969 L 215.296875 153.601562 C 209.875 152.105469 204.691406 149.960938 199.820312 147.1875 L 192.09375 154.921875 C 188.214844 158.808594 181.902344 158.808594 178.023438 154.921875 L 166.503906 143.375 C 162.621094 139.492188 162.621094 133.171875 166.5 129.285156 L 174.230469 121.546875 C 171.457031 116.679688 169.3125 111.476562 167.824219 106.054688 L 156.886719 106.054688 C 151.40625 106.054688 146.941406 101.585938 146.941406 96.085938 L 146.941406 79.765625 C 146.941406 74.273438 151.40625 69.804688 156.886719 69.804688 L 167.824219 69.804688 C 169.308594 64.375 171.457031 59.183594 174.21875 54.304688 L 166.503906 46.566406 C 162.621094 42.679688 162.621094 36.359375 166.5 32.476562 L 178.023438 20.9375 C 181.90625 17.050781 188.214844 17.050781 192.09375 20.9375 L 199.820312 28.675781 C 204.691406 25.898438 209.875 23.753906 215.296875 22.261719 L 215.296875 11.308594 C 215.296875 5.808594 219.761719 1.347656 225.242188 1.347656 L 241.542969 1.347656 C 247.03125 1.347656 251.496094 5.808594 251.496094 11.308594 L 251.496094 22.261719 C 256.910156 23.753906 262.101562 25.898438 266.964844 28.675781 L 274.691406 20.9375 C 278.570312 17.050781 284.890625 17.050781 288.761719 20.9375 L 300.292969 32.476562 C 304.171875 36.359375 304.171875 42.679688 300.289062 46.566406 L 292.566406 54.304688 C 295.328125 59.183594 297.480469 64.375 298.96875 69.804688 L 309.898438 69.804688 C 315.390625 69.804688 319.851562 74.273438 319.851562 79.765625 L 319.851562 96.085938 C 319.851562 101.585938 315.386719 106.054688 309.898438 106.054688 L 298.96875 106.054688 C 297.480469 111.476562 295.335938 116.667969 292.566406 121.554688 L 300.292969 129.285156 C 304.171875 133.171875 304.171875 139.492188 300.289062 143.375 L 288.761719 154.921875 C 284.890625 158.808594 278.570312 158.808594 274.691406 154.921875 L 266.964844 147.1875 C 262.101562 149.960938 256.910156 152.105469 251.496094 153.601562 L 251.496094 164.542969 C 251.496094 170.042969 247.03125 174.511719 241.542969 174.511719 Z M 241.542969 174.511719 "/><path style=" stroke:none;fill-rule:evenodd;fill:#000000;fill-opacity:1;" d="M 233.390625 63.28125 C 227.089844 63.28125 220.777344 65.679688 215.980469 70.492188 C 206.375 80.105469 206.375 95.75 215.980469 105.367188 C 225.582031 114.980469 241.203125 114.980469 250.808594 105.367188 C 260.40625 95.75 260.40625 80.105469 250.808594 70.492188 C 246.007812 65.679688 239.703125 63.28125 233.390625 63.28125 Z M 233.390625 119.105469 C 225.082031 119.105469 217.261719 115.863281 211.382812 109.976562 C 199.242188 97.816406 199.242188 78.042969 211.382812 65.886719 C 217.261719 59.996094 225.082031 56.746094 233.390625 56.746094 C 241.710938 56.746094 249.527344 59.996094 255.410156 65.886719 C 267.550781 78.042969 267.546875 97.816406 255.410156 109.976562 C 249.53125 115.863281 241.710938 119.105469 233.390625 119.105469 Z M 233.390625 119.105469 "/><path style=" stroke:none;fill-rule:evenodd;fill:#000000;fill-opacity:1;" d="M 262.6875 250.171875 C 263.558594 250.171875 264.421875 250.519531 265.058594 251.199219 C 267.839844 254.160156 271.046875 256.628906 274.605469 258.546875 C 275.9375 259.257812 276.597656 260.792969 276.207031 262.253906 L 274.019531 270.441406 C 273.886719 270.941406 274.199219 271.476562 274.699219 271.609375 L 284.59375 274.265625 C 285.09375 274.402344 285.636719 274.097656 285.769531 273.589844 L 287.957031 265.410156 C 288.347656 263.949219 289.703125 262.964844 291.203125 263 C 295.25 263.128906 299.257812 262.59375 303.136719 261.421875 C 304.585938 260.980469 306.144531 261.601562 306.898438 262.90625 L 311.128906 270.246094 C 311.296875 270.542969 311.566406 270.652344 311.710938 270.6875 C 311.855469 270.730469 312.144531 270.769531 312.429688 270.601562 L 321.308594 265.46875 C 321.605469 265.300781 321.714844 265.027344 321.75 264.882812 C 321.792969 264.738281 321.824219 264.449219 321.65625 264.164062 L 317.429688 256.816406 C 316.675781 255.507812 316.921875 253.847656 318.023438 252.8125 C 320.980469 250.027344 323.445312 246.8125 325.351562 243.25 C 326.070312 241.917969 327.59375 241.246094 329.058594 241.644531 L 337.238281 243.835938 C 337.558594 243.917969 337.828125 243.808594 337.957031 243.734375 C 338.082031 243.65625 338.320312 243.488281 338.402344 243.15625 L 341.054688 233.246094 C 341.191406 232.746094 340.878906 232.203125 340.378906 232.066406 L 332.210938 229.878906 C 330.753906 229.488281 329.753906 228.140625 329.796875 226.628906 C 329.925781 222.582031 329.398438 218.5625 328.222656 214.675781 C 327.789062 213.226562 328.40625 211.664062 329.710938 210.910156 L 337.042969 206.675781 C 337.335938 206.503906 337.445312 206.234375 337.480469 206.089844 C 337.523438 205.945312 337.558594 205.65625 337.386719 205.359375 L 332.269531 196.476562 C 332.011719 196.027344 331.40625 195.867188 330.957031 196.128906 L 323.628906 200.363281 C 322.316406 201.117188 320.664062 200.871094 319.632812 199.769531 C 316.855469 196.808594 313.640625 194.339844 310.085938 192.429688 C 308.757812 191.710938 308.085938 190.175781 308.476562 188.714844 L 310.667969 180.527344 C 310.804688 180.027344 310.492188 179.492188 309.992188 179.355469 L 300.089844 176.703125 C 299.597656 176.574219 299.054688 176.878906 298.917969 177.378906 L 296.734375 185.558594 C 296.335938 187.019531 295.011719 188.035156 293.488281 187.976562 C 289.449219 187.839844 285.433594 188.375 281.550781 189.554688 C 280.097656 189.988281 278.546875 189.375 277.792969 188.0625 L 273.554688 180.722656 C 273.386719 180.425781 273.125 180.316406 272.980469 180.28125 C 272.835938 180.238281 272.546875 180.207031 272.25 180.375 L 263.375 185.5 C 263.085938 185.667969 262.976562 185.941406 262.933594 186.085938 C 262.898438 186.230469 262.855469 186.515625 263.027344 186.816406 L 267.261719 194.152344 C 268.015625 195.460938 267.769531 197.121094 266.667969 198.15625 C 263.714844 200.941406 261.246094 204.15625 259.332031 207.71875 C 258.621094 209.050781 257.085938 209.722656 255.628906 209.332031 L 247.457031 207.132812 C 246.964844 206.996094 246.421875 207.3125 246.285156 207.8125 L 243.636719 217.730469 C 243.5 218.230469 243.804688 218.765625 244.3125 218.902344 L 252.480469 221.089844 C 253.9375 221.480469 254.933594 222.828125 254.882812 224.339844 C 254.757812 228.386719 255.292969 232.40625 256.460938 236.292969 C 256.902344 237.742188 256.28125 239.304688 254.976562 240.058594 L 247.652344 244.292969 C 247.355469 244.460938 247.242188 244.734375 247.199219 244.878906 C 247.167969 245.023438 247.125 245.3125 247.292969 245.609375 L 252.417969 254.492188 C 252.589844 254.789062 252.859375 254.898438 253.003906 254.941406 C 253.148438 254.972656 253.433594 255.015625 253.722656 254.847656 L 261.058594 250.605469 C 261.570312 250.316406 262.128906 250.171875 262.6875 250.171875 Z M 284.839844 280.816406 C 284.207031 280.816406 283.550781 280.738281 282.90625 280.5625 L 273.015625 277.90625 C 269.039062 276.835938 266.667969 272.730469 267.734375 268.753906 L 269.277344 262.992188 C 266.71875 261.414062 264.328125 259.574219 262.144531 257.503906 L 256.976562 260.488281 C 255.257812 261.480469 253.25 261.746094 251.316406 261.226562 C 249.386719 260.710938 247.777344 259.480469 246.785156 257.75 L 241.664062 248.867188 C 239.605469 245.292969 240.832031 240.714844 244.386719 238.652344 L 249.558594 235.671875 C 248.859375 232.738281 248.464844 229.75 248.378906 226.738281 L 242.625 225.195312 C 238.65625 224.125 236.28125 220.019531 237.347656 216.042969 L 240 206.125 C 241.058594 202.144531 245.167969 199.769531 249.140625 200.839844 L 254.894531 202.390625 C 256.46875 199.820312 258.308594 197.4375 260.375 195.246094 L 257.394531 190.070312 C 256.402344 188.34375 256.136719 186.332031 256.65625 184.394531 C 257.171875 182.472656 258.398438 180.859375 260.121094 179.859375 L 269 174.726562 C 270.71875 173.730469 272.734375 173.46875 274.65625 173.988281 C 276.589844 174.503906 278.199219 175.742188 279.199219 177.464844 L 282.171875 182.640625 C 285.101562 181.9375 288.09375 181.539062 291.089844 181.460938 L 292.632812 175.691406 C 293.703125 171.714844 297.800781 169.335938 301.773438 170.40625 L 311.679688 173.0625 C 315.648438 174.132812 318.011719 178.238281 316.953125 182.214844 L 315.40625 187.984375 C 317.972656 189.5625 320.351562 191.394531 322.539062 193.464844 L 327.707031 190.480469 C 331.273438 188.417969 335.847656 189.648438 337.90625 193.21875 L 343.019531 202.101562 C 344.023438 203.832031 344.285156 205.84375 343.765625 207.777344 C 343.25 209.703125 342.011719 211.324219 340.292969 212.316406 L 335.136719 215.304688 C 335.828125 218.230469 336.226562 221.226562 336.304688 224.238281 L 342.0625 225.78125 C 346.039062 226.839844 348.410156 230.949219 347.339844 234.925781 L 344.691406 244.84375 C 344.175781 246.769531 342.9375 248.375 341.207031 249.375 C 339.480469 250.375 337.464844 250.640625 335.550781 250.128906 L 329.789062 248.585938 C 328.214844 251.148438 326.382812 253.539062 324.316406 255.730469 L 327.296875 260.90625 C 328.292969 262.625 328.550781 264.636719 328.035156 266.570312 C 327.519531 268.507812 326.28125 270.117188 324.5625 271.109375 L 315.683594 276.242188 C 313.964844 277.234375 311.957031 277.5 310.023438 276.980469 C 308.09375 276.464844 306.484375 275.234375 305.492188 273.503906 L 302.511719 268.335938 C 299.578125 269.03125 296.597656 269.429688 293.589844 269.515625 L 292.050781 275.277344 C 291.160156 278.609375 288.136719 280.816406 284.839844 280.816406 Z M 284.839844 280.816406 "/><path style=" stroke:none;fill-rule:evenodd;fill:#000000;fill-opacity:1;" d="M 292.320312 211.179688 C 289.847656 211.179688 287.40625 211.832031 285.203125 213.105469 C 281.902344 215.015625 279.546875 218.09375 278.554688 221.785156 C 276.519531 229.394531 281.042969 237.25 288.652344 239.296875 C 292.335938 240.28125 296.183594 239.78125 299.480469 237.863281 C 302.78125 235.953125 305.144531 232.875 306.128906 229.183594 C 307.121094 225.5 306.613281 221.640625 304.707031 218.339844 C 302.800781 215.03125 299.722656 212.664062 296.039062 211.679688 C 294.8125 211.351562 293.558594 211.179688 292.320312 211.179688 Z M 292.378906 246.304688 C 290.578125 246.304688 288.753906 246.066406 286.964844 245.589844 C 275.894531 242.613281 269.304688 231.183594 272.269531 220.097656 C 273.710938 214.726562 277.148438 210.238281 281.949219 207.464844 C 286.765625 204.679688 292.363281 203.941406 297.726562 205.386719 C 303.085938 206.820312 307.570312 210.265625 310.339844 215.082031 C 313.117188 219.894531 313.855469 225.5 312.414062 230.871094 C 310.984375 236.242188 307.542969 240.730469 302.730469 243.511719 C 299.53125 245.363281 295.980469 246.304688 292.378906 246.304688 Z M 292.378906 246.304688 "/></g></svg>