<svg xmlns="http://www.w3.org/2000/svg" xmlns:xlink="http://www.w3.org/1999/xlink" width="500" zoomAndPan="magnify" viewBox="0 0 375.12 383.03998" height="500" preserveAspectRatio="xMidYMid meet" version="1.2"><defs><clipPath id="beb9cad747"><path d="M 355 84 L 374.09375 84 L 374.09375 97 L 355 97 Z M 355 84 "/></clipPath><clipPath id="386c4eeb9d"><path d="M 0.03125 151 L 98 151 L 98 374.0625 L 0.03125 374.0625 Z M 0.03125 151 "/></clipPath></defs><g id="b91094c8b1"><path style=" stroke:none;fill-rule:nonzero;fill:#000000;fill-opacity:1;" d="M 313.761719 180.996094 L 313.761719 169.316406 C 313.761719 160.695312 316.976562 152.726562 322.582031 147.445312 C 336.144531 134.679688 343.925781 116.59375 343.925781 97.816406 C 343.925781 78.328125 335.671875 59.777344 321.289062 46.921875 C 307.109375 34.257812 288.925781 28.464844 270.007812 30.589844 C 239.132812 34.074219 214.542969 59.5 211.527344 91.046875 C 209.503906 112.1875 217.027344 132.617188 232.171875 147.097656 C 238.007812 152.683594 241.359375 160.769531 241.359375 169.292969 L 241.359375 180.996094 C 241.359375 184.328125 244.0625 187.03125 247.394531 187.03125 L 307.726562 187.03125 C 311.058594 187.03125 313.761719 184.328125 313.761719 180.996094 Z M 301.691406 174.964844 L 253.425781 174.964844 L 253.425781 169.292969 C 253.425781 157.492188 248.714844 146.222656 240.503906 138.371094 C 228.050781 126.46875 221.859375 109.640625 223.53125 92.199219 C 226.011719 66.304688 246.121094 45.4375 271.359375 42.582031 C 286.796875 40.855469 301.667969 45.582031 313.246094 55.921875 C 325.070312 66.492188 331.859375 81.757812 331.859375 97.816406 C 331.859375 113.273438 325.464844 128.164062 314.308594 138.667969 C 306.289062 146.210938 301.691406 157.382812 301.691406 169.316406 Z M 301.691406 174.964844 "/><path style=" stroke:none;fill-rule:nonzero;fill:#000000;fill-opacity:1;" d="M 247.394531 193.066406 L 307.726562 193.066406 L 307.726562 205.132812 L 247.394531 205.132812 Z M 247.394531 193.066406 "/><path style=" stroke:none;fill-rule:nonzero;fill:#000000;fill-opacity:1;" d="M 306.882812 220.707031 L 307.414062 219.109375 C 308.027344 217.269531 307.714844 215.25 306.582031 213.675781 C 305.453125 212.09375 303.628906 211.164062 301.691406 211.164062 L 253.425781 211.164062 C 251.492188 211.164062 249.667969 212.09375 248.535156 213.675781 C 247.398438 215.25 247.09375 217.269531 247.703125 219.109375 L 248.234375 220.707031 C 252.347656 233.039062 263.851562 241.332031 276.855469 241.332031 L 278.265625 241.332031 C 291.269531 241.332031 302.773438 233.039062 306.882812 220.707031 Z M 278.265625 229.265625 L 276.855469 229.265625 C 271.574219 229.265625 266.71875 226.988281 263.359375 223.230469 L 291.761719 223.230469 C 288.402344 226.988281 283.546875 229.265625 278.265625 229.265625 Z M 278.265625 229.265625 "/><path style=" stroke:none;fill-rule:nonzero;fill:#000000;fill-opacity:1;" d="M 181.027344 84.464844 L 199.128906 84.464844 L 199.128906 96.53125 L 181.027344 96.53125 Z M 181.027344 84.464844 "/><g clip-rule="nonzero" clip-path="url(#beb9cad747)"><path style=" stroke:none;fill-rule:nonzero;fill:#000000;fill-opacity:1;" d="M 355.992188 84.464844 L 374.09375 84.464844 L 374.09375 96.53125 L 355.992188 96.53125 Z M 355.992188 84.464844 "/></g><path style=" stroke:none;fill-rule:nonzero;fill:#000000;fill-opacity:1;" d="M 205.03125 26.507812 L 213.5625 17.976562 L 226.363281 30.773438 L 217.832031 39.308594 Z M 205.03125 26.507812 "/><path style=" stroke:none;fill-rule:nonzero;fill:#000000;fill-opacity:1;" d="M 328.75 30.773438 L 341.546875 17.976562 L 350.082031 26.507812 L 337.28125 39.308594 Z M 328.75 30.773438 "/><path style=" stroke:none;fill-rule:nonzero;fill:#000000;fill-opacity:1;" d="M 271.527344 0 L 283.59375 0 L 283.59375 18.101562 L 271.527344 18.101562 Z M 271.527344 0 "/><g clip-rule="nonzero" clip-path="url(#386c4eeb9d)"><path style=" stroke:none;fill-rule:nonzero;fill:#000000;fill-opacity:1;" d="M 15.316406 373.855469 C 15.835938 373.996094 16.363281 374.0625 16.882812 374.0625 C 18.582031 374.0625 20.234375 373.339844 21.394531 372.035156 L 57.203125 331.660156 C 57.824219 330.960938 58.273438 330.121094 58.515625 329.21875 L 95.988281 189.347656 C 100.296875 173.28125 90.726562 156.707031 74.660156 152.398438 C 58.578125 148.097656 42.023438 157.667969 37.714844 173.734375 L 0.234375 313.601562 C -0.0117188 314.507812 -0.0351562 315.457031 0.152344 316.371094 L 10.96875 369.242188 C 11.425781 371.480469 13.109375 373.265625 15.316406 373.855469 Z M 41.695312 330.953125 L 37.21875 336.003906 L 15.28125 330.128906 L 13.929688 323.515625 Z M 20.375 354.996094 L 17.992188 343.339844 L 28.273438 346.097656 Z M 48.417969 320.265625 L 36.761719 317.136719 L 67.988281 200.582031 L 79.644531 203.707031 Z M 71.535156 164.054688 C 81.175781 166.640625 86.914062 176.585938 84.332031 186.222656 L 82.769531 192.050781 L 47.800781 182.6875 L 49.363281 176.859375 C 51.953125 167.21875 61.894531 161.480469 71.535156 164.054688 Z M 44.683594 194.335938 L 56.339844 197.460938 L 25.109375 314.019531 L 13.453125 310.894531 Z M 44.683594 194.335938 "/></g><path style=" stroke:none;fill-rule:nonzero;fill:#000000;fill-opacity:1;" d="M 283.59375 295.628906 L 283.59375 277.53125 L 271.527344 277.53125 L 271.527344 295.628906 C 271.527344 318.917969 252.582031 337.863281 229.292969 337.863281 L 217.226562 337.863281 C 193.9375 337.863281 174.996094 318.917969 174.996094 295.628906 L 174.996094 187.03125 C 174.996094 157.09375 150.632812 132.730469 120.695312 132.730469 L 114.660156 132.730469 L 114.660156 144.796875 L 120.695312 144.796875 C 143.984375 144.796875 162.929688 163.742188 162.929688 187.03125 L 162.929688 295.628906 C 162.929688 325.566406 187.289062 349.929688 217.226562 349.929688 L 229.292969 349.929688 C 259.230469 349.929688 283.59375 325.566406 283.59375 295.628906 Z M 283.59375 295.628906 "/><path style=" stroke:none;fill-rule:nonzero;fill:#000000;fill-opacity:1;" d="M 271.527344 253.398438 L 283.59375 253.398438 L 283.59375 265.464844 L 271.527344 265.464844 Z M 271.527344 253.398438 "/><path style=" stroke:none;fill-rule:nonzero;fill:#000000;fill-opacity:1;" d="M 308.636719 83.445312 L 290.976562 80.75 L 283.027344 63.800781 C 282.03125 61.683594 279.902344 60.332031 277.558594 60.332031 C 275.21875 60.332031 273.089844 61.683594 272.101562 63.800781 L 264.148438 80.75 L 246.488281 83.445312 C 244.25 83.789062 242.398438 85.351562 241.679688 87.496094 C 240.960938 89.636719 241.503906 92.007812 243.082031 93.625 L 256.035156 106.902344 L 252.960938 125.726562 C 252.589844 128.007812 253.554688 130.300781 255.441406 131.632812 C 257.332031 132.96875 259.816406 133.09375 261.835938 131.984375 L 277.558594 123.289062 L 293.28125 131.976562 C 294.199219 132.476562 295.203125 132.730469 296.203125 132.730469 C 297.421875 132.730469 298.640625 132.359375 299.679688 131.628906 C 301.566406 130.292969 302.53125 128 302.15625 125.722656 L 299.085938 106.898438 L 312.039062 93.617188 C 313.621094 92 314.164062 89.636719 313.441406 87.488281 C 312.714844 85.339844 310.871094 83.789062 308.636719 83.445312 Z M 288.324219 100.660156 C 286.984375 102.027344 286.382812 103.953125 286.6875 105.839844 L 288.25 115.410156 L 280.480469 111.113281 C 279.570312 110.613281 278.566406 110.359375 277.558594 110.359375 C 276.550781 110.359375 275.550781 110.613281 274.640625 111.113281 L 266.871094 115.410156 L 268.433594 105.839844 C 268.738281 103.953125 268.136719 102.027344 266.796875 100.660156 L 259.914062 93.605469 L 269.148438 92.195312 C 271.140625 91.886719 272.847656 90.613281 273.699219 88.792969 L 277.558594 80.566406 L 281.421875 88.792969 C 282.277344 90.613281 283.984375 91.886719 285.96875 92.195312 L 295.207031 93.605469 Z M 288.324219 100.660156 "/><path style=" stroke:none;fill-rule:nonzero;fill:#000000;fill-opacity:1;" d="M 90.527344 132.730469 L 102.59375 132.730469 L 102.59375 144.796875 L 90.527344 144.796875 Z M 90.527344 132.730469 "/></g></svg>