<svg xmlns="http://www.w3.org/2000/svg" xmlns:xlink="http://www.w3.org/1999/xlink" width="500" zoomAndPan="magnify" viewBox="0 0 375 374.999991" height="500" preserveAspectRatio="xMidYMid meet" version="1.2"><defs><clipPath id="8543ef808f"><path d="M 95 19.75 L 235 19.75 L 235 134 L 95 134 Z M 95 19.75 "/></clipPath></defs><g id="2c65c6def6"><path style=" stroke:none;fill-rule:evenodd;fill:#000000;fill-opacity:1;" d="M 47.996094 149.265625 C 46 149.265625 44.175781 150.59375 43.585938 152.585938 L 12.761719 259.445312 C 12.097656 261.859375 13.507812 264.34375 15.914062 265.09375 L 55.796875 276.136719 C 58.214844 276.800781 60.703125 275.386719 61.367188 272.984375 L 92.191406 166.132812 C 92.53125 164.976562 92.359375 163.722656 91.78125 162.730469 C 91.203125 161.65625 90.199219 160.90625 88.953125 160.570312 L 49.070312 149.527344 C 48.742188 149.347656 48.332031 149.265625 47.996094 149.265625 Z M 57.054688 284.679688 C 55.894531 284.679688 54.722656 284.511719 53.5625 284.183594 L 13.679688 273.144531 C 6.78125 271.152344 2.710938 264.007812 4.703125 257.117188 L 35.53125 150.183594 C 37.523438 143.292969 44.671875 139.394531 51.484375 141.300781 L 91.371094 152.34375 C 94.691406 153.34375 97.519531 155.492188 99.183594 158.484375 C 100.925781 161.476562 101.347656 165.050781 100.34375 168.367188 L 69.519531 275.304688 C 67.863281 281.023438 62.621094 284.679688 57.054688 284.679688 Z M 57.054688 284.679688 "/><path style=" stroke:none;fill-rule:evenodd;fill:#000000;fill-opacity:1;" d="M 62.292969 173.097656 C 59.214844 173.097656 56.640625 175.585938 56.640625 178.746094 C 56.640625 181.824219 59.132812 184.394531 62.292969 184.394531 C 65.375 184.394531 67.949219 181.90625 67.949219 178.746094 C 67.949219 175.585938 65.363281 173.097656 62.292969 173.097656 Z M 62.292969 192.6875 C 54.566406 192.6875 48.246094 186.375 48.246094 178.652344 C 48.246094 170.929688 54.566406 164.617188 62.292969 164.617188 C 70.023438 164.617188 76.34375 170.929688 76.34375 178.652344 C 76.34375 186.375 70.023438 192.6875 62.292969 192.6875 Z M 62.292969 192.6875 "/><path style=" stroke:none;fill-rule:evenodd;fill:#000000;fill-opacity:1;" d="M 325.804688 149.347656 L 285.921875 160.390625 C 284.761719 160.730469 283.757812 161.464844 283.179688 162.550781 C 282.597656 163.625 282.429688 164.878906 282.765625 166.039062 L 313.59375 272.890625 C 314.257812 275.21875 316.832031 276.703125 319.160156 276.039062 L 359.128906 265 C 361.546875 264.335938 362.949219 261.761719 362.285156 259.351562 L 331.457031 152.5 C 330.792969 150.097656 328.21875 148.6875 325.804688 149.347656 Z M 317.90625 284.597656 C 312.339844 284.597656 307.179688 280.941406 305.523438 275.21875 L 274.699219 168.285156 C 273.78125 164.964844 274.203125 161.394531 275.859375 158.402344 C 277.527344 155.40625 280.351562 153.25 283.675781 152.257812 L 323.644531 141.214844 C 330.539062 139.394531 337.691406 143.375 339.515625 150.183594 L 370.351562 257.03125 C 372.34375 263.921875 368.273438 271.066406 361.375 273.058594 L 321.40625 284.101562 C 320.238281 284.425781 319.078125 284.597656 317.90625 284.597656 Z M 317.90625 284.597656 "/><path style=" stroke:none;fill-rule:evenodd;fill:#000000;fill-opacity:1;" d="M 312.421875 173.171875 C 309.34375 173.171875 306.769531 175.660156 306.769531 178.820312 C 306.769531 181.898438 309.257812 184.46875 312.421875 184.46875 C 315.5 184.46875 318.074219 181.980469 318.074219 178.820312 C 318.074219 175.660156 315.585938 173.171875 312.421875 173.171875 Z M 312.421875 192.769531 C 304.691406 192.769531 298.375 186.460938 298.375 178.734375 C 298.375 171.011719 304.691406 164.703125 312.421875 164.703125 C 320.152344 164.703125 326.46875 171.011719 326.46875 178.734375 C 326.46875 186.460938 320.152344 192.769531 312.421875 192.769531 Z M 312.421875 192.769531 "/><path style=" stroke:none;fill-rule:evenodd;fill:#000000;fill-opacity:1;" d="M 268.792969 285.175781 C 266.546875 285.175781 264.640625 283.4375 264.554688 281.109375 C 264.46875 278.78125 266.292969 276.871094 268.625 276.789062 C 268.878906 276.789062 289.402344 275.871094 305.441406 264.828125 C 307.351562 263.5 309.933594 263.996094 311.261719 265.902344 C 312.589844 267.8125 312.09375 270.394531 310.1875 271.71875 C 292.070312 284.257812 269.796875 285.175781 268.890625 285.175781 C 268.878906 285.175781 268.792969 285.175781 268.792969 285.175781 Z M 268.792969 285.175781 "/><path style=" stroke:none;fill-rule:evenodd;fill:#000000;fill-opacity:1;" d="M 80.824219 280.359375 C 79.75 280.359375 78.664062 279.949219 77.828125 279.117188 L 65.53125 266.832031 C 63.867188 265.167969 63.867188 262.511719 65.53125 260.941406 C 67.199219 259.277344 69.855469 259.277344 71.425781 260.941406 L 83.722656 273.226562 C 85.390625 274.890625 85.390625 277.546875 83.722656 279.117188 C 82.902344 279.949219 81.898438 280.359375 80.824219 280.359375 Z M 80.824219 280.359375 "/><path style=" stroke:none;fill-rule:evenodd;fill:#000000;fill-opacity:1;" d="M 162.511719 355 C 157.027344 355 151.628906 352.925781 147.472656 348.773438 L 140.410156 341.714844 C 138.742188 340.050781 138.742188 337.394531 140.410156 335.824219 C 142.074219 334.160156 144.730469 334.160156 146.304688 335.824219 L 153.371094 342.882812 C 158.441406 347.867188 166.582031 347.867188 171.570312 342.882812 C 173.988281 340.472656 175.316406 337.152344 175.316406 333.75 C 175.316406 332.082031 174.976562 330.515625 174.398438 328.933594 C 173.734375 327.351562 172.816406 325.941406 171.570312 324.699219 C 169.90625 323.03125 169.90625 320.378906 171.570312 318.808594 C 173.238281 317.144531 175.894531 317.144531 177.464844 318.808594 L 193.339844 334.582031 C 198.328125 339.648438 206.550781 339.648438 211.539062 334.582031 C 213.957031 332.167969 215.285156 328.847656 215.285156 325.445312 C 215.285156 322.042969 213.957031 318.808594 211.539062 316.3125 C 209.875 314.644531 209.875 311.992188 211.539062 310.421875 C 213.207031 308.757812 215.863281 308.757812 217.433594 310.421875 C 221.421875 314.402344 223.667969 319.796875 223.667969 325.445312 C 223.667969 331.007812 221.421875 336.488281 217.433594 340.472656 C 209.125 348.773438 195.660156 348.773438 187.347656 340.472656 L 183.53125 336.65625 C 182.867188 341.21875 180.789062 345.539062 177.464844 348.859375 C 173.394531 352.925781 167.996094 355 162.511719 355 Z M 162.511719 355 "/><path style=" stroke:none;fill-rule:evenodd;fill:#000000;fill-opacity:1;" d="M 233.644531 329.511719 C 228.160156 329.511719 222.761719 327.4375 218.605469 323.285156 L 179.796875 284.511719 C 178.132812 282.847656 178.132812 280.191406 179.796875 278.621094 C 181.464844 276.957031 184.121094 276.957031 185.691406 278.621094 L 224.5 317.394531 C 229.574219 322.464844 237.714844 322.464844 242.703125 317.394531 C 245.117188 314.984375 246.449219 311.75 246.449219 308.261719 C 246.449219 304.859375 245.117188 301.621094 242.703125 299.125 L 203.894531 260.351562 C 202.226562 258.6875 202.226562 256.03125 203.894531 254.460938 C 205.5625 252.796875 208.21875 252.796875 209.789062 254.460938 L 248.597656 293.234375 C 252.585938 297.21875 254.832031 302.613281 254.832031 308.261719 C 254.832031 313.910156 252.585938 319.304688 248.597656 323.285156 C 244.527344 327.4375 239.042969 329.511719 233.644531 329.511719 Z M 233.644531 329.511719 "/><path style=" stroke:none;fill-rule:evenodd;fill:#000000;fill-opacity:1;" d="M 251.929688 299.707031 C 246.277344 299.707031 240.878906 297.460938 236.894531 293.476562 C 235.226562 291.8125 235.226562 289.160156 236.894531 287.589844 C 238.558594 285.921875 241.214844 285.921875 242.789062 287.589844 C 245.203125 290 248.441406 291.328125 251.929688 291.328125 C 255.335938 291.328125 258.574219 290 261.074219 287.589844 C 262.984375 285.679688 264.226562 283.183594 264.648438 280.613281 C 264.648438 280.527344 264.648438 280.445312 264.648438 280.359375 C 264.734375 279.78125 264.816406 279.203125 264.816406 278.539062 C 264.816406 275.132812 263.488281 271.898438 261.074219 269.402344 L 199.328125 207.710938 C 194.835938 203.222656 188.277344 201.484375 182.210938 203.222656 C 179.058594 204.140625 176.234375 205.792969 174.070312 208.207031 L 154.792969 229.046875 L 154.707031 229.132812 C 145.648438 238.183594 130.9375 238.183594 121.878906 229.132812 C 114.644531 221.902344 112.988281 210.945312 117.808594 201.820312 C 123.957031 190.199219 134.597656 174.34375 150.46875 164.375 C 163.429688 156.15625 177.730469 153.417969 192.9375 156.15625 C 195.183594 156.492188 226.589844 161.308594 251.277344 178.15625 L 277.949219 166.617188 C 280.109375 165.703125 282.515625 166.703125 283.433594 168.777344 C 284.347656 170.9375 283.347656 173.339844 281.269531 174.257812 L 252.4375 186.710938 C 251.109375 187.292969 249.527344 187.121094 248.28125 186.300781 C 224.679688 169.285156 191.933594 164.46875 191.691406 164.386719 C 191.609375 164.386719 191.609375 164.386719 191.523438 164.386719 C 178.394531 162.054688 166.097656 164.386719 154.960938 171.445312 C 140.671875 180.410156 130.949219 195.023438 125.296875 205.730469 C 122.214844 211.546875 123.304688 218.59375 127.871094 223.167969 C 130.695312 225.992188 134.355469 227.488281 138.339844 227.488281 C 142.242188 227.488281 145.988281 225.992188 148.730469 223.253906 L 167.921875 202.410156 C 171.160156 198.921875 175.316406 196.351562 179.976562 195.023438 C 188.949219 192.453125 198.675781 195.023438 205.316406 201.664062 L 267.066406 263.355469 C 271.050781 267.335938 273.296875 272.730469 273.296875 278.378906 C 273.296875 279.539062 273.210938 280.707031 272.960938 281.78125 C 272.296875 286.101562 270.21875 290.167969 267.066406 293.320312 C 262.984375 297.472656 257.667969 299.707031 251.929688 299.707031 Z M 251.929688 299.707031 "/><path style=" stroke:none;fill-rule:evenodd;fill:#000000;fill-opacity:1;" d="M 94.785156 177.324219 C 92.878906 177.324219 91.128906 175.996094 90.714844 174.089844 C 90.21875 171.84375 91.632812 169.601562 93.871094 169.019531 C 118.96875 163.289062 147.136719 163.542969 152.535156 163.710938 L 152.703125 163.710938 C 155.035156 163.710938 156.859375 165.617188 156.859375 167.945312 C 156.859375 170.273438 154.949219 172.097656 152.703125 172.097656 L 152.367188 172.097656 C 147.136719 172.011719 119.960938 171.761719 95.777344 177.25 C 95.453125 177.25 95.113281 177.324219 94.785156 177.324219 Z M 94.785156 177.324219 "/><path style=" stroke:none;fill-rule:evenodd;fill:#000000;fill-opacity:1;" d="M 90.464844 296.964844 C 86.5625 296.964844 82.5625 295.46875 79.578125 292.476562 C 73.601562 286.503906 73.601562 276.789062 79.578125 270.804688 L 92.710938 257.6875 C 95.621094 254.777344 99.4375 253.195312 103.507812 253.195312 C 107.578125 253.195312 111.480469 254.777344 114.308594 257.6875 C 117.21875 260.59375 118.800781 264.40625 118.800781 268.476562 C 118.800781 272.542969 117.21875 276.441406 114.308594 279.265625 C 112.640625 280.929688 109.984375 280.929688 108.410156 279.265625 C 106.746094 277.601562 106.746094 274.945312 108.410156 273.375 C 109.742188 272.046875 110.40625 270.296875 110.40625 268.476562 C 110.40625 266.652344 109.65625 264.902344 108.410156 263.574219 C 107.082031 262.25 105.332031 261.585938 103.507812 261.585938 C 101.683594 261.585938 99.933594 262.332031 98.605469 263.574219 L 85.476562 276.695312 C 82.734375 279.433594 82.734375 283.835938 85.476562 286.492188 C 88.214844 289.230469 92.625 289.230469 95.28125 286.492188 C 96.949219 284.828125 99.605469 284.828125 101.175781 286.492188 C 102.84375 288.15625 102.84375 290.8125 101.175781 292.382812 C 98.363281 295.480469 94.449219 296.964844 90.464844 296.964844 Z M 90.464844 296.964844 "/><path style=" stroke:none;fill-rule:evenodd;fill:#000000;fill-opacity:1;" d="M 101.515625 317.3125 C 97.613281 317.3125 93.617188 315.816406 90.632812 312.824219 C 84.652344 306.847656 84.652344 297.132812 90.632812 291.148438 L 108.496094 273.300781 C 111.40625 270.394531 115.226562 268.8125 119.296875 268.8125 C 123.367188 268.8125 127.269531 270.394531 130.09375 273.300781 C 133.003906 276.207031 134.585938 280.023438 134.585938 284.089844 C 134.585938 288.15625 133.003906 292.054688 130.09375 294.878906 C 128.429688 296.542969 125.769531 296.542969 124.199219 294.878906 C 122.53125 293.214844 122.53125 290.558594 124.199219 288.988281 C 125.527344 287.660156 126.191406 285.914062 126.191406 284.089844 C 126.191406 282.265625 125.445312 280.519531 124.199219 279.191406 C 122.871094 277.863281 121.121094 277.199219 119.296875 277.199219 C 117.472656 277.199219 115.71875 277.949219 114.390625 279.191406 L 96.609375 297.125 C 93.871094 299.863281 93.871094 304.269531 96.609375 306.921875 C 99.351562 309.664062 103.761719 309.664062 106.417969 306.921875 C 108.085938 305.257812 110.742188 305.257812 112.3125 306.921875 C 113.980469 308.585938 113.980469 311.242188 112.3125 312.8125 C 109.328125 315.816406 105.417969 317.3125 101.515625 317.3125 Z M 101.515625 317.3125 "/><path style=" stroke:none;fill-rule:evenodd;fill:#000000;fill-opacity:1;" d="M 135.09375 292.984375 C 133.351562 292.984375 131.519531 293.648438 130.1875 294.972656 L 107.167969 317.976562 C 105.839844 319.304688 105.175781 321.050781 105.175781 322.875 C 105.175781 324.699219 105.921875 326.445312 107.167969 327.773438 C 108.496094 329.101562 110.246094 329.765625 112.070312 329.765625 C 113.894531 329.765625 115.648438 329.019531 116.976562 327.773438 L 139.996094 304.773438 C 141.324219 303.445312 141.988281 301.695312 141.988281 299.875 C 141.988281 298.050781 141.242188 296.300781 139.996094 294.972656 C 138.65625 293.648438 136.832031 292.984375 135.09375 292.984375 Z M 112.070312 338.238281 C 108 338.238281 104.097656 336.65625 101.1875 333.75 C 98.277344 330.839844 96.695312 327.027344 96.695312 322.960938 C 96.695312 318.890625 98.277344 314.992188 101.1875 312.171875 L 124.210938 289.167969 C 130.1875 283.195312 139.914062 283.195312 145.902344 289.167969 C 151.882812 295.144531 151.882812 304.859375 145.902344 310.84375 L 122.882812 333.84375 C 120.042969 336.65625 116.226562 338.238281 112.070312 338.238281 Z M 112.070312 338.238281 "/><path style=" stroke:none;fill-rule:evenodd;fill:#000000;fill-opacity:1;" d="M 134.503906 347.289062 C 130.601562 347.289062 126.605469 345.792969 123.703125 342.800781 C 117.722656 336.824219 117.722656 327.109375 123.703125 321.125 C 125.371094 319.460938 128.027344 319.460938 129.597656 321.125 C 131.265625 322.789062 131.265625 325.445312 129.597656 327.015625 C 128.269531 328.34375 127.605469 330.09375 127.605469 331.914062 C 127.605469 333.738281 128.355469 335.488281 129.597656 336.816406 C 132.339844 339.554688 136.75 339.554688 139.40625 336.816406 L 155.773438 320.460938 C 157.101562 319.132812 157.765625 317.386719 157.765625 315.5625 C 157.765625 313.738281 157.019531 311.992188 155.773438 310.664062 C 154.445312 309.335938 152.695312 308.671875 150.871094 308.671875 C 149.046875 308.671875 147.292969 309.421875 145.964844 310.664062 C 144.300781 312.328125 141.640625 312.328125 140.070312 310.664062 C 138.40625 309 138.40625 306.34375 140.070312 304.773438 C 142.980469 301.867188 146.800781 300.285156 150.871094 300.285156 C 154.941406 300.285156 158.84375 301.867188 161.667969 304.773438 C 164.578125 307.679688 166.160156 311.496094 166.160156 315.5625 C 166.160156 319.628906 164.578125 323.527344 161.667969 326.351562 L 145.300781 342.789062 C 142.316406 345.792969 138.414062 347.289062 134.503906 347.289062 Z M 134.503906 347.289062 "/><g clip-rule="nonzero" clip-path="url(#8543ef808f)"><path style=" stroke:none;fill-rule:evenodd;fill:#000000;fill-opacity:1;" d="M 164.675781 28.042969 C 130.9375 28.042969 103.507812 46.554688 103.507812 69.304688 C 103.507812 83.167969 113.980469 96.121094 131.433594 103.84375 C 133.015625 104.507812 133.921875 106.085938 133.921875 107.742188 C 133.921875 108.152344 133.667969 116.210938 127.519531 124.429688 C 134.25 123.429688 143.730469 120.195312 153.949219 111.230469 C 154.867188 110.480469 155.941406 110.070312 157.101562 110.226562 C 159.761719 110.480469 162.257812 110.636719 164.578125 110.636719 C 198.316406 110.636719 225.746094 92.125 225.746094 69.378906 C 225.746094 46.628906 198.410156 28.042969 164.675781 28.042969 Z M 121.878906 133.238281 C 118.640625 133.238281 116.5625 132.828125 116.3125 132.828125 C 114.644531 132.492188 113.398438 131.246094 113.074219 129.59375 C 112.734375 127.929688 113.410156 126.273438 114.738281 125.273438 C 122.046875 120.121094 124.378906 113.734375 125.210938 110.25 C 106.34375 100.945312 95.207031 85.835938 95.207031 69.398438 C 95.207031 55.871094 102.601562 43.164062 116.152344 33.785156 C 129.199219 24.734375 146.398438 19.75 164.769531 19.75 C 183.054688 19.75 200.339844 24.734375 213.386719 33.871094 C 226.851562 43.246094 234.332031 55.871094 234.332031 69.410156 C 234.332031 82.949219 226.9375 95.644531 213.386719 105.023438 C 200.339844 114.074219 183.140625 119.058594 164.769531 119.058594 C 162.691406 119.058594 160.53125 118.972656 158.285156 118.804688 C 143.320312 131.164062 129.355469 133.238281 121.878906 133.238281 Z M 121.878906 133.238281 "/></g><path style=" stroke:none;fill-rule:evenodd;fill:#000000;fill-opacity:1;" d="M 257.246094 149.59375 C 251.011719 149.59375 239.464844 147.925781 227.085938 137.632812 C 225.34375 137.71875 223.679688 137.800781 221.929688 137.800781 C 200.898438 137.800781 181.539062 129.667969 171.402344 116.632812 C 169.988281 114.8125 170.328125 112.144531 172.152344 110.742188 C 173.976562 109.34375 176.644531 109.667969 178.046875 111.492188 C 186.695312 122.535156 203.472656 129.425781 222 129.425781 C 224.164062 129.425781 226.15625 129.339844 228.234375 129.171875 C 229.394531 129.089844 230.480469 129.425781 231.3125 130.171875 C 238.707031 136.652344 245.6875 139.394531 250.929688 140.550781 C 246.773438 134.15625 246.605469 128.265625 246.605469 127.929688 C 246.605469 126.265625 247.605469 124.695312 249.09375 124.03125 C 263.140625 117.886719 271.609375 107.507812 271.609375 96.296875 C 271.609375 79.609375 252.910156 65.414062 228.148438 63.339844 C 225.820312 63.171875 224.164062 61.097656 224.332031 58.777344 C 224.5 56.449219 226.578125 54.796875 228.898438 54.964844 C 258.070312 57.449219 280.089844 75.140625 280.089844 96.308594 C 280.089844 110.089844 270.945312 122.628906 255.496094 130.351562 C 256.246094 133.175781 258.238281 137.90625 263.636719 141.730469 C 264.964844 142.734375 265.628906 144.386719 265.304688 145.96875 C 264.964844 147.632812 263.722656 148.875 262.066406 149.203125 C 261.738281 149.265625 260.074219 149.59375 257.246094 149.59375 Z M 257.246094 149.59375 "/><path style=" stroke:none;fill-rule:evenodd;fill:#000000;fill-opacity:1;" d="M 195.835938 61.917969 L 133.425781 61.917969 C 131.097656 61.917969 129.1875 60.011719 129.1875 57.683594 C 129.1875 55.355469 131.097656 53.445312 133.425781 53.445312 L 195.835938 53.445312 C 198.167969 53.445312 200.078125 55.355469 200.078125 57.683594 C 200.078125 60.011719 198.15625 61.917969 195.835938 61.917969 Z M 195.835938 61.917969 "/><path style=" stroke:none;fill-rule:evenodd;fill:#000000;fill-opacity:1;" d="M 195.835938 85.003906 L 133.425781 85.003906 C 131.097656 85.003906 129.1875 83.097656 129.1875 80.769531 C 129.1875 78.4375 131.097656 76.53125 133.425781 76.53125 L 195.835938 76.53125 C 198.167969 76.53125 200.078125 78.4375 200.078125 80.769531 C 200.078125 83.097656 198.15625 85.003906 195.835938 85.003906 Z M 195.835938 85.003906 "/></g></svg>