<svg xmlns="http://www.w3.org/2000/svg" xmlns:xlink="http://www.w3.org/1999/xlink" width="500" zoomAndPan="magnify" viewBox="0 0 375.12 383.03998" height="500" preserveAspectRatio="xMidYMid meet" version="1.2"><defs><clipPath id="38db77e675"><path d="M 8.257812 143 L 235 143 L 235 372.570312 L 8.257812 372.570312 Z M 8.257812 143 "/></clipPath><clipPath id="ce5c84e5b7"><path d="M 304 1.5 L 364 1.5 L 364 47 L 304 47 Z M 304 1.5 "/></clipPath></defs><g id="62a882328d"><g clip-rule="nonzero" clip-path="url(#38db77e675)"><path style=" stroke:none;fill-rule:nonzero;fill:#100f0d;fill-opacity:1;" d="M 229.941406 279.988281 C 226.621094 279.082031 223.171875 281.0625 222.273438 284.40625 C 210.277344 328.945312 169.640625 360.0625 123.445312 360.0625 C 67.019531 360.0625 21.113281 314.152344 21.113281 257.722656 C 21.113281 204.503906 61.015625 160.695312 113.9375 155.820312 C 117.382812 155.503906 119.910156 152.453125 119.597656 149.011719 C 119.277344 145.570312 116.242188 143.0625 112.789062 143.351562 C 53.386719 148.824219 8.59375 197.992188 8.59375 257.722656 C 8.59375 321.054688 60.117188 372.582031 123.445312 372.582031 C 175.289062 372.582031 220.898438 337.660156 234.359375 287.65625 C 235.261719 284.320312 233.28125 280.886719 229.941406 279.988281 "/></g><path style=" stroke:none;fill-rule:nonzero;fill:#100f0d;fill-opacity:1;" d="M 80.722656 268.90625 C 78.691406 266.101562 74.777344 265.488281 71.984375 267.507812 C 69.183594 269.539062 68.554688 273.449219 70.585938 276.25 L 94.707031 309.527344 C 95.742188 310.960938 97.332031 311.886719 99.089844 312.082031 C 99.316406 312.105469 99.546875 312.121094 99.773438 312.121094 C 101.296875 312.121094 102.769531 311.566406 103.917969 310.546875 L 177.332031 245.65625 C 179.921875 243.367188 180.167969 239.410156 177.878906 236.824219 C 175.585938 234.234375 171.632812 233.992188 169.042969 236.277344 L 100.796875 296.601562 L 80.722656 268.90625 "/><g clip-rule="nonzero" clip-path="url(#ce5c84e5b7)"><path style=" stroke:none;fill-rule:nonzero;fill:#100f0d;fill-opacity:1;" d="M 361.375 25.398438 C 357.960938 18.84375 351.515625 12.511719 343.6875 8.027344 C 336.074219 3.671875 327.996094 1.492188 321.1875 1.492188 C 314.351562 1.492188 308.804688 3.6875 306.292969 8.078125 C 303.320312 13.277344 305.78125 19.640625 307.511719 22.976562 C 310.921875 29.535156 317.367188 35.863281 325.199219 40.34375 C 333.023438 44.820312 341.757812 47.175781 349.128906 46.792969 C 352.859375 46.601562 359.523438 45.503906 362.527344 40.386719 L 362.609375 40.261719 C 365.550781 35.070312 363.101562 28.722656 361.375 25.398438 "/></g><path style=" stroke:none;fill-rule:nonzero;fill:#100f0d;fill-opacity:1;" d="M 317.371094 134.285156 C 313.140625 141.703125 304.730469 146.242188 293.847656 146.800781 C 293.105469 146.839844 292.351562 146.859375 291.59375 146.859375 C 282.339844 146.863281 272.292969 144.007812 263.054688 138.714844 C 253.054688 132.992188 245.039062 125.015625 240.480469 116.253906 C 235.453125 106.59375 235.109375 97.042969 239.503906 89.363281 L 247.070312 77.527344 C 217.242188 72.226562 192.128906 79.746094 182.011719 97.417969 C 166.339844 124.808594 189.597656 167.695312 233.859375 193.027344 C 276.824219 217.617188 323.941406 216.691406 341.003906 191.570312 L 344.21875 185.953125 C 352.070312 168.023438 344.964844 143.660156 325.460938 121.628906 L 317.371094 134.285156 "/><path style=" stroke:none;fill-rule:nonzero;fill:#100f0d;fill-opacity:1;" d="M 347.515625 59.351562 C 338.265625 59.351562 328.222656 56.496094 318.980469 51.207031 C 308.976562 45.484375 300.960938 37.507812 296.410156 28.75 C 295.882812 27.742188 295.441406 26.734375 295.015625 25.730469 L 250.210938 95.84375 C 247.394531 100.78125 249.855469 107.148438 251.589844 110.480469 C 255 117.039062 261.441406 123.367188 269.269531 127.851562 C 277.097656 132.328125 285.824219 134.683594 293.203125 134.300781 C 296.957031 134.105469 303.695312 133.003906 306.667969 127.804688 L 350.492188 59.222656 C 350.25 59.238281 350.019531 59.28125 349.773438 59.292969 C 349.03125 59.332031 348.277344 59.351562 347.515625 59.351562 "/><path style=" stroke:none;fill-rule:nonzero;fill:#100f0d;fill-opacity:1;" d="M 227.640625 203.890625 C 192.867188 183.992188 170.035156 153.652344 165.59375 125.792969 L 158.503906 138.035156 C 142.847656 165.394531 166.109375 208.28125 210.367188 233.621094 C 232.226562 246.132812 255.808594 252.402344 276.777344 251.347656 C 296.714844 250.320312 311.730469 242.703125 319.058594 229.898438 L 325.839844 218.058594 C 316.835938 221.484375 306.523438 223.234375 295.457031 223.234375 C 274.261719 223.234375 250.324219 216.875 227.640625 203.890625 "/></g></svg>