<svg xmlns="http://www.w3.org/2000/svg" xmlns:xlink="http://www.w3.org/1999/xlink" width="500" zoomAndPan="magnify" viewBox="0 0 375.12 383.03998" height="500" preserveAspectRatio="xMidYMid meet" version="1.2"><defs><clipPath id="70988fd736"><path d="M 1.78125 44 L 317 44 L 317 313 L 1.78125 313 Z M 1.78125 44 "/></clipPath><clipPath id="2910241ba4"><path d="M 1.78125 102 L 317 102 L 317 113 L 1.78125 113 Z M 1.78125 102 "/></clipPath><clipPath id="29bb18142b"><path d="M 141 19.355469 L 178 19.355469 L 178 81 L 141 81 Z M 141 19.355469 "/></clipPath><clipPath id="416972d325"><path d="M 220 19.355469 L 257 19.355469 L 257 81 L 220 81 Z M 220 19.355469 "/></clipPath><clipPath id="c6814df2da"><path d="M 62 19.355469 L 99 19.355469 L 99 81 L 62 81 Z M 62 19.355469 "/></clipPath><clipPath id="0d0c691922"><path d="M 194 177 L 372.105469 177 L 372.105469 354.515625 L 194 354.515625 Z M 194 177 "/></clipPath><clipPath id="6fe3451095"><path d="M 278 323 L 289 323 L 289 354.515625 L 278 354.515625 Z M 278 323 "/></clipPath><clipPath id="d161cdb8c2"><path d="M 341 260 L 372.105469 260 L 372.105469 272 L 341 272 Z M 341 260 "/></clipPath></defs><g id="539a497f31"><g clip-rule="nonzero" clip-path="url(#70988fd736)"><path style=" stroke:none;fill-rule:evenodd;fill:#000000;fill-opacity:1;" d="M 146.539062 55.414062 L 93.265625 55.414062 C 90.375 55.414062 88.015625 53.078125 88.015625 50.1875 C 88.015625 47.273438 90.375 44.9375 93.265625 44.9375 L 146.539062 44.9375 C 149.425781 44.9375 151.765625 47.277344 151.765625 50.1875 C 151.765625 53.078125 149.425781 55.414062 146.539062 55.414062 Z M 225.457031 55.414062 L 172.1875 55.414062 C 169.296875 55.414062 166.9375 53.078125 166.9375 50.1875 C 166.9375 47.273438 169.296875 44.9375 172.1875 44.9375 L 225.457031 44.9375 C 228.347656 44.9375 230.6875 47.277344 230.6875 50.1875 C 230.6875 53.078125 228.347656 55.414062 225.457031 55.414062 Z M 311.667969 192.453125 C 308.757812 192.453125 306.417969 190.113281 306.417969 187.226562 L 306.417969 86.671875 C 306.417969 69.4375 292.417969 55.414062 275.203125 55.414062 L 251.085938 55.414062 C 248.195312 55.414062 245.835938 53.078125 245.835938 50.1875 C 245.835938 47.273438 248.195312 44.9375 251.085938 44.9375 L 275.203125 44.9375 C 298.195312 44.9375 316.894531 63.660156 316.894531 86.671875 L 316.894531 187.226562 C 316.894531 190.113281 314.558594 192.453125 311.667969 192.453125 Z M 211.09375 312.746094 L 43.519531 312.746094 C 20.507812 312.746094 1.785156 294.023438 1.785156 271.03125 L 1.785156 86.671875 C 1.785156 63.660156 20.507812 44.9375 43.519531 44.9375 L 67.636719 44.9375 C 70.527344 44.9375 72.867188 47.277344 72.867188 50.1875 C 72.867188 53.078125 70.527344 55.414062 67.636719 55.414062 L 43.519531 55.414062 C 26.285156 55.414062 12.261719 69.4375 12.261719 86.671875 L 12.261719 271.035156 C 12.261719 288.246094 26.285156 302.269531 43.519531 302.269531 L 211.09375 302.269531 C 213.984375 302.269531 216.320312 304.628906 216.320312 307.519531 C 216.320312 310.410156 213.984375 312.746094 211.09375 312.746094 Z M 211.09375 312.746094 "/></g><g clip-rule="nonzero" clip-path="url(#2910241ba4)"><path style=" stroke:none;fill-rule:evenodd;fill:#000000;fill-opacity:1;" d="M 311.667969 112.597656 L 7.035156 112.597656 C 4.144531 112.597656 1.785156 110.257812 1.785156 107.371094 C 1.785156 104.457031 4.144531 102.121094 7.035156 102.121094 L 311.667969 102.121094 C 314.558594 102.121094 316.894531 104.457031 316.894531 107.371094 C 316.894531 110.257812 314.558594 112.597656 311.667969 112.597656 Z M 311.667969 112.597656 "/></g><g clip-rule="nonzero" clip-path="url(#29bb18142b)"><path style=" stroke:none;fill-rule:evenodd;fill:#545454;fill-opacity:1;" d="M 159.351562 29.914062 C 155.164062 29.914062 151.765625 33.3125 151.765625 37.5 L 151.765625 62.894531 C 151.765625 67.058594 155.164062 70.457031 159.351562 70.457031 C 163.539062 70.457031 166.9375 67.058594 166.9375 62.894531 L 166.9375 37.5 C 166.9375 33.3125 163.539062 29.914062 159.351562 29.914062 Z M 159.351562 80.933594 C 149.386719 80.933594 141.289062 72.839844 141.289062 62.894531 L 141.289062 37.5 C 141.289062 27.535156 149.386719 19.4375 159.351562 19.4375 C 169.316406 19.4375 177.414062 27.535156 177.414062 37.5 L 177.414062 62.894531 C 177.414062 72.839844 169.316406 80.933594 159.351562 80.933594 Z M 159.351562 80.933594 "/></g><g clip-rule="nonzero" clip-path="url(#416972d325)"><path style=" stroke:none;fill-rule:evenodd;fill:#545454;fill-opacity:1;" d="M 238.273438 29.914062 C 234.085938 29.914062 230.6875 33.3125 230.6875 37.5 L 230.6875 62.894531 C 230.6875 67.058594 234.085938 70.457031 238.25 70.457031 C 242.4375 70.457031 245.835938 67.058594 245.835938 62.894531 L 245.835938 37.5 C 245.835938 33.3125 242.4375 29.914062 238.273438 29.914062 Z M 238.273438 80.933594 C 228.308594 80.933594 220.210938 72.839844 220.210938 62.894531 L 220.210938 37.5 C 220.210938 27.535156 228.308594 19.4375 238.25 19.4375 C 248.195312 19.4375 256.3125 27.535156 256.3125 37.5 L 256.3125 62.894531 C 256.3125 72.839844 248.21875 80.933594 238.273438 80.933594 Z M 238.273438 80.933594 "/></g><g clip-rule="nonzero" clip-path="url(#c6814df2da)"><path style=" stroke:none;fill-rule:evenodd;fill:#545454;fill-opacity:1;" d="M 80.453125 29.914062 C 76.265625 29.914062 72.867188 33.3125 72.867188 37.5 L 72.867188 62.894531 C 72.867188 67.058594 76.265625 70.457031 80.453125 70.457031 C 84.617188 70.457031 88.015625 67.058594 88.015625 62.894531 L 88.015625 37.5 C 88.015625 33.3125 84.617188 29.914062 80.453125 29.914062 Z M 80.453125 80.933594 C 70.484375 80.933594 62.390625 72.839844 62.390625 62.894531 L 62.390625 37.5 C 62.390625 27.535156 70.484375 19.4375 80.453125 19.4375 C 90.417969 19.4375 98.492188 27.535156 98.492188 37.5 L 98.492188 62.894531 C 98.492188 72.839844 90.394531 80.933594 80.453125 80.933594 Z M 80.453125 80.933594 "/></g><path style=" stroke:none;fill-rule:evenodd;fill:#000000;fill-opacity:1;" d="M 51.679688 136.734375 C 51.210938 136.734375 50.808594 137.140625 50.808594 137.605469 L 50.808594 159.941406 C 50.808594 160.386719 51.210938 160.789062 51.660156 160.789062 L 74.011719 160.789062 C 74.480469 160.789062 74.863281 160.386719 74.863281 159.941406 L 74.863281 137.605469 C 74.863281 137.140625 74.480469 136.734375 74.011719 136.734375 Z M 74.011719 171.265625 L 51.679688 171.265625 C 45.410156 171.265625 40.332031 166.1875 40.332031 159.941406 L 40.332031 137.605469 C 40.332031 131.339844 45.410156 126.257812 51.65625 126.257812 L 74.011719 126.257812 C 80.257812 126.257812 85.339844 131.339844 85.339844 137.605469 L 85.339844 159.941406 C 85.339844 166.1875 80.257812 171.265625 74.011719 171.265625 Z M 74.011719 171.265625 "/><path style=" stroke:none;fill-rule:evenodd;fill:#000000;fill-opacity:1;" d="M 51.679688 193.644531 C 51.210938 193.644531 50.808594 194.046875 50.808594 194.511719 L 50.808594 216.847656 C 50.808594 217.316406 51.210938 217.695312 51.660156 217.695312 L 74.011719 217.695312 C 74.480469 217.695312 74.863281 217.316406 74.863281 216.847656 L 74.863281 194.511719 C 74.863281 194.046875 74.480469 193.644531 74.011719 193.644531 Z M 74.011719 228.171875 L 51.679688 228.171875 C 45.410156 228.171875 40.332031 223.09375 40.332031 216.847656 L 40.332031 194.511719 C 40.332031 188.246094 45.410156 183.167969 51.65625 183.167969 L 74.011719 183.167969 C 80.257812 183.167969 85.339844 188.246094 85.339844 194.511719 L 85.339844 216.847656 C 85.339844 223.09375 80.257812 228.171875 74.011719 228.171875 Z M 74.011719 228.171875 "/><path style=" stroke:none;fill-rule:evenodd;fill:#000000;fill-opacity:1;" d="M 51.679688 251.015625 C 51.210938 251.015625 50.808594 251.421875 50.808594 251.886719 L 50.808594 274.21875 C 50.808594 274.6875 51.210938 275.070312 51.660156 275.070312 L 74.011719 275.070312 C 74.480469 275.070312 74.863281 274.6875 74.863281 274.21875 L 74.863281 251.886719 C 74.863281 251.417969 74.480469 251.015625 74.011719 251.015625 Z M 74.011719 285.546875 L 51.679688 285.546875 C 45.410156 285.546875 40.332031 280.46875 40.332031 274.21875 L 40.332031 251.886719 C 40.332031 245.640625 45.410156 240.539062 51.65625 240.539062 L 74.011719 240.539062 C 80.257812 240.539062 85.339844 245.640625 85.339844 251.886719 L 85.339844 274.21875 C 85.339844 280.46875 80.257812 285.546875 74.011719 285.546875 Z M 74.011719 285.546875 "/><path style=" stroke:none;fill-rule:evenodd;fill:#000000;fill-opacity:1;" d="M 111.644531 136.734375 C 111.179688 136.734375 110.773438 137.140625 110.773438 137.605469 L 110.773438 159.941406 C 110.773438 160.386719 111.179688 160.789062 111.644531 160.789062 L 133.980469 160.789062 C 134.445312 160.789062 134.828125 160.386719 134.828125 159.941406 L 134.828125 137.605469 C 134.828125 137.140625 134.425781 136.734375 133.980469 136.734375 Z M 133.980469 171.265625 L 111.644531 171.265625 C 105.398438 171.265625 100.296875 166.1875 100.296875 159.941406 L 100.296875 137.605469 C 100.296875 131.339844 105.375 126.257812 111.644531 126.257812 L 133.980469 126.257812 C 140.226562 126.257812 145.304688 131.339844 145.304688 137.605469 L 145.304688 159.941406 C 145.304688 166.1875 140.226562 171.265625 133.980469 171.265625 Z M 133.980469 171.265625 "/><path style=" stroke:none;fill-rule:evenodd;fill:#000000;fill-opacity:1;" d="M 171.613281 136.734375 C 171.144531 136.734375 170.742188 137.140625 170.742188 137.605469 L 170.742188 159.941406 C 170.742188 160.386719 171.144531 160.789062 171.613281 160.789062 L 193.96875 160.789062 C 194.414062 160.789062 194.816406 160.386719 194.816406 159.941406 L 194.816406 137.605469 C 194.816406 137.160156 194.414062 136.734375 193.96875 136.734375 Z M 193.96875 171.265625 L 171.613281 171.265625 C 165.34375 171.265625 160.265625 166.1875 160.265625 159.941406 L 160.265625 137.605469 C 160.265625 131.339844 165.34375 126.257812 171.613281 126.257812 L 193.96875 126.257812 C 200.214844 126.257812 205.292969 131.339844 205.292969 137.605469 L 205.292969 159.941406 C 205.292969 166.1875 200.214844 171.265625 193.96875 171.265625 Z M 193.96875 171.265625 "/><path style=" stroke:none;fill-rule:evenodd;fill:#000000;fill-opacity:1;" d="M 231.578125 136.734375 C 231.109375 136.734375 230.707031 137.140625 230.707031 137.605469 L 230.707031 159.941406 C 230.707031 160.386719 231.113281 160.789062 231.578125 160.789062 L 253.933594 160.789062 C 254.402344 160.789062 254.785156 160.386719 254.785156 159.941406 L 254.785156 137.605469 C 254.785156 137.140625 254.402344 136.734375 253.933594 136.734375 Z M 253.933594 171.265625 L 231.578125 171.265625 C 225.332031 171.265625 220.230469 166.1875 220.230469 159.941406 L 220.230469 137.605469 C 220.230469 131.339844 225.332031 126.257812 231.578125 126.257812 L 253.933594 126.257812 C 260.179688 126.257812 265.257812 131.339844 265.257812 137.605469 L 265.257812 159.941406 C 265.257812 166.1875 260.179688 171.265625 253.933594 171.265625 Z M 253.933594 171.265625 "/><path style=" stroke:none;fill-rule:evenodd;fill:#000000;fill-opacity:1;" d="M 119.1875 193.644531 C 114.558594 193.644531 110.773438 197.425781 110.773438 202.058594 L 110.773438 252.078125 C 110.773438 256.710938 114.558594 260.492188 119.1875 260.492188 L 169.230469 260.492188 C 173.863281 260.492188 177.625 256.710938 177.625 252.078125 L 177.625 202.058594 C 177.625 197.402344 173.863281 193.644531 169.230469 193.644531 Z M 169.230469 270.96875 L 119.1875 270.96875 C 108.777344 270.96875 100.296875 262.492188 100.296875 252.078125 L 100.296875 202.058594 C 100.296875 191.644531 108.777344 183.167969 119.1875 183.167969 L 169.230469 183.167969 C 179.625 183.167969 188.101562 191.644531 188.101562 202.058594 L 188.101562 252.078125 C 188.101562 262.492188 179.625 270.96875 169.230469 270.96875 Z M 169.230469 270.96875 "/><g clip-rule="nonzero" clip-path="url(#0d0c691922)"><path style=" stroke:none;fill-rule:evenodd;fill:#545454;fill-opacity:1;" d="M 283.40625 187.542969 C 240.269531 187.542969 205.164062 222.648438 205.164062 265.785156 C 205.164062 308.921875 240.269531 344.003906 283.40625 344.003906 C 326.542969 344.003906 361.625 308.921875 361.625 265.785156 C 361.625 222.648438 326.523438 187.542969 283.40625 187.542969 Z M 283.40625 354.480469 C 234.492188 354.480469 194.691406 314.679688 194.691406 265.785156 C 194.691406 216.890625 234.492188 177.066406 283.40625 177.066406 C 332.324219 177.066406 372.101562 216.867188 372.101562 265.785156 C 372.101562 314.703125 332.300781 354.480469 283.40625 354.480469 Z M 283.40625 354.480469 "/></g><g clip-rule="nonzero" clip-path="url(#6fe3451095)"><path style=" stroke:none;fill-rule:evenodd;fill:#545454;fill-opacity:1;" d="M 283.40625 354.480469 C 280.496094 354.480469 278.160156 352.144531 278.160156 349.253906 L 278.160156 328.664062 C 278.160156 325.75 280.496094 323.414062 283.40625 323.414062 C 286.296875 323.414062 288.632812 325.75 288.632812 328.664062 L 288.632812 349.253906 C 288.632812 352.144531 286.296875 354.480469 283.40625 354.480469 Z M 283.40625 354.480469 "/></g><path style=" stroke:none;fill-rule:evenodd;fill:#545454;fill-opacity:1;" d="M 342.417969 330.042969 C 341.058594 330.042969 339.71875 329.535156 338.699219 328.515625 L 324.140625 313.957031 C 322.101562 311.917969 322.101562 308.605469 324.140625 306.542969 C 326.203125 304.503906 329.496094 304.503906 331.558594 306.542969 L 346.113281 321.097656 C 348.152344 323.160156 348.152344 326.472656 346.113281 328.515625 C 345.09375 329.535156 343.753906 330.042969 342.417969 330.042969 Z M 342.417969 330.042969 "/><g clip-rule="nonzero" clip-path="url(#d161cdb8c2)"><path style=" stroke:none;fill-rule:evenodd;fill:#545454;fill-opacity:1;" d="M 366.875 271.011719 L 346.285156 271.011719 C 343.394531 271.011719 341.035156 268.675781 341.035156 265.785156 C 341.035156 262.894531 343.371094 260.535156 346.285156 260.535156 L 366.875 260.535156 C 369.765625 260.535156 372.101562 262.894531 372.101562 265.785156 C 372.101562 268.675781 369.765625 271.011719 366.875 271.011719 Z M 366.875 271.011719 "/></g><path style=" stroke:none;fill-rule:evenodd;fill:#545454;fill-opacity:1;" d="M 327.859375 226.558594 C 326.5 226.558594 325.183594 226.046875 324.140625 225.027344 C 322.101562 222.988281 322.101562 219.671875 324.140625 217.613281 L 338.699219 203.054688 C 340.757812 201.015625 344.074219 201.015625 346.113281 203.054688 C 348.152344 205.117188 348.152344 208.433594 346.113281 210.472656 L 331.558594 225.027344 C 330.539062 226.046875 329.199219 226.558594 327.859375 226.558594 Z M 327.859375 226.558594 "/><path style=" stroke:none;fill-rule:evenodd;fill:#545454;fill-opacity:1;" d="M 283.40625 208.132812 C 280.496094 208.132812 278.160156 205.796875 278.160156 202.90625 L 278.160156 182.316406 C 278.160156 179.40625 280.496094 177.066406 283.40625 177.066406 C 286.296875 177.066406 288.632812 179.40625 288.632812 182.316406 L 288.632812 202.90625 C 288.632812 205.796875 286.296875 208.132812 283.40625 208.132812 Z M 283.40625 208.132812 "/><path style=" stroke:none;fill-rule:evenodd;fill:#545454;fill-opacity:1;" d="M 238.910156 226.558594 C 237.570312 226.558594 236.253906 226.046875 235.210938 225.027344 L 220.65625 210.472656 C 218.617188 208.433594 218.617188 205.117188 220.65625 203.054688 C 222.71875 201.015625 226.03125 201.015625 228.074219 203.054688 L 242.628906 217.613281 C 244.667969 219.671875 244.667969 222.988281 242.628906 225.027344 C 241.609375 226.046875 240.269531 226.558594 238.910156 226.558594 Z M 238.910156 226.558594 "/><path style=" stroke:none;fill-rule:evenodd;fill:#545454;fill-opacity:1;" d="M 220.527344 271.011719 L 199.9375 271.011719 C 197.046875 271.011719 194.691406 268.675781 194.691406 265.785156 C 194.691406 262.894531 197.046875 260.535156 199.9375 260.535156 L 220.527344 260.535156 C 223.417969 260.535156 225.757812 262.894531 225.757812 265.785156 C 225.757812 268.675781 223.417969 271.011719 220.527344 271.011719 Z M 220.527344 271.011719 "/><path style=" stroke:none;fill-rule:evenodd;fill:#545454;fill-opacity:1;" d="M 224.375 330.042969 C 223.035156 330.042969 221.675781 329.535156 220.65625 328.515625 C 218.617188 326.472656 218.617188 323.160156 220.65625 321.097656 L 235.210938 306.542969 C 237.273438 304.503906 240.566406 304.503906 242.628906 306.542969 C 244.667969 308.605469 244.667969 311.917969 242.628906 313.957031 L 228.074219 328.515625 C 227.050781 329.535156 225.714844 330.042969 224.375 330.042969 Z M 224.375 330.042969 "/><path style=" stroke:none;fill-rule:evenodd;fill:#545454;fill-opacity:1;" d="M 283.40625 310.578125 C 280.496094 310.578125 278.160156 308.242188 278.160156 305.351562 L 278.160156 265.785156 C 278.160156 262.894531 280.496094 260.535156 283.40625 260.535156 C 286.296875 260.535156 288.632812 262.894531 288.632812 265.785156 L 288.632812 305.351562 C 288.632812 308.242188 286.296875 310.578125 283.40625 310.578125 Z M 283.40625 310.578125 "/><path style=" stroke:none;fill-rule:evenodd;fill:#545454;fill-opacity:1;" d="M 283.40625 271.011719 C 282.046875 271.011719 280.730469 270.503906 279.6875 269.480469 C 277.648438 267.441406 277.648438 264.128906 279.6875 262.066406 L 307.675781 234.101562 C 309.714844 232.0625 313.03125 232.0625 315.070312 234.101562 C 317.109375 236.164062 317.109375 239.476562 315.070312 241.515625 L 287.105469 269.480469 C 286.085938 270.503906 284.746094 271.011719 283.40625 271.011719 Z M 283.40625 271.011719 "/><path style=" stroke:none;fill-rule:evenodd;fill:#545454;fill-opacity:1;" d="M 138.886719 244.28125 C 137.484375 244.28125 136.167969 243.726562 135.171875 242.75 L 121.847656 229.425781 C 119.808594 227.386719 119.808594 224.070312 121.847656 222.011719 C 123.90625 219.96875 127.222656 219.96875 129.261719 222.011719 L 138.890625 231.636719 L 159.140625 211.363281 C 161.203125 209.324219 164.496094 209.324219 166.554688 211.363281 C 168.59375 213.425781 168.59375 216.742188 166.554688 218.78125 L 142.585938 242.75 C 141.609375 243.726562 140.269531 244.28125 138.890625 244.28125 Z M 138.886719 244.28125 "/></g></svg>